<svg width="663" height="415" viewBox="0 0 663 415" fill="none" xmlns="http://www.w3.org/2000/svg">
<path d="M198.661 198.066C201.854 195.729 204.643 192.758 206.779 189.481C216.935 173.898 218.595 152.994 208.862 136.834C206.907 133.589 204.445 130.555 201.213 128.579C190.862 122.253 170.922 121.281 159.334 122.463C148.867 123.531 138.262 128.114 132.354 136.818C128.943 141.842 138.539 148.777 141.534 152.983C142.667 154.577 143.853 156.218 145.541 157.209C149.422 159.489 154.599 157.641 158.727 159.438C163.023 161.31 164.81 166.535 164.858 171.221C164.907 175.906 163.711 180.578 164.165 185.241C164.983 193.675 171.757 201.185 180.061 202.869C186.599 204.194 193.215 202.051 198.661 198.066Z" fill="#F3CFBB"/>
<path d="M157.951 139.727C165.806 133.391 173.584 127.427 182.592 126.155C186.762 125.566 191.054 125.659 195.166 126.931C197.439 127.634 199.748 128.543 201.895 129.89C204.142 131.299 205.875 133.674 207.968 135.407C210.803 137.754 214.856 132.729 212.723 128.166C209.604 121.494 203.37 118.134 198.278 116.605C193.046 115.033 187.766 114.818 182.499 116.055C172.922 118.307 162.432 125.737 157.302 138.738C157.048 139.379 157.543 140.057 157.951 139.727Z" fill="#533744"/>
<path d="M255.959 177.181C258.395 179.182 260.648 181.766 261.005 184.898C261.24 186.953 260.62 189.03 259.645 190.854C257.111 195.597 251.864 198.91 246.495 198.642C241.124 198.373 236.047 194.225 235.188 188.917C231.565 193.657 225.205 196.721 219.508 194.957C213.809 193.191 210.309 185.542 213.845 180.737C216.559 177.049 221.795 175.665 225.056 172.583C229.189 168.677 231.052 164.627 236.979 162.666C242.784 168.199 249.785 172.11 255.959 177.181Z" fill="#F3CFBB"/>
<path d="M247.619 134.865C248.048 134.448 248.483 134.047 248.932 133.683C249.052 133.585 250.306 132.707 249.764 133.043C250.712 132.453 251.694 132.083 252.687 131.719C254.82 130.935 255.831 130.62 258.088 130.861C259.479 131.009 261.222 132.047 262.676 133.22C263.52 133.9 264.382 134.532 265.218 135.229C266.04 135.917 266.852 136.791 267.763 137.169C268.658 137.54 269.918 136.435 269.782 134.827C269.478 131.2 267.551 128.005 265.678 125.944C263.703 123.771 261.42 122.48 259.107 121.399C253.89 118.963 248.356 120.512 243.823 124.976C242.172 126.6 241.339 130.131 242.474 132.811C243.542 135.333 245.846 136.589 247.619 134.865Z" fill="#533744"/>
<path d="M95.26 23.542C85.196 12.9474 71.0067 6.30736 55.24 6.30736C24.732 6.30736 0 31.0407 0 61.5487C0 83.1967 12.4813 101.883 30.6147 110.943C32.8587 93.3567 39.5147 68.1487 58.472 47.658C67.1147 38.3207 80.4867 28.2847 95.26 23.542Z" fill="#533744"/>
<path d="M214.07 159.204C214.07 166.292 204.985 159.204 193.778 159.204C182.572 159.204 173.486 166.292 173.486 159.204C173.486 152.116 182.572 146.371 193.778 146.371C204.985 146.371 214.07 152.116 214.07 159.204Z" fill="#533744"/>
<path d="M271.86 156.823C271.86 163.911 265.938 156.823 258.632 156.823C251.327 156.823 245.404 163.911 245.404 156.823C245.404 149.735 251.327 143.99 258.632 143.99C265.938 143.99 271.86 149.735 271.86 156.823Z" fill="#533744"/>
<path d="M154.143 189.535C153.911 198.889 162.274 206.794 171.402 208.849C180.53 210.902 190.061 208.362 198.767 204.938C205.794 202.174 212.769 198.777 220.301 198.226C227.833 197.674 236.282 200.825 239.255 207.767C242.855 204.782 246.825 202.242 251.043 200.223C253.861 198.875 256.899 197.741 260.018 197.905C263.137 198.067 266.346 199.809 267.422 202.741C268.67 206.143 266.765 209.921 264.301 212.579C258.779 218.537 250.062 221.342 242.102 219.725C240.505 219.399 238.922 218.909 237.293 218.91C235.261 218.91 233.317 219.674 231.421 220.406C227.241 222.019 223.009 223.537 218.638 224.529C198.375 229.127 151.269 225.118 154.143 189.535Z" fill="#533744"/>
<path d="M88.6381 212.696C88.6381 223.295 85.1661 233.059 79.3555 241.006C79.7155 242.711 79.9848 244.33 80.1328 245.832C81.1648 256.248 81.7061 266.799 82.6275 277.264C89.8488 275.99 97.2381 275.203 104.823 275.203C174.973 275.203 231.842 332.071 231.842 402.222C231.842 406.216 231.606 410.154 231.243 414.054C238.946 413.194 246.499 411.436 253.631 408.363C270.133 401.254 284.047 386.542 286.786 368.783C287.101 366.742 287.294 364.616 287.993 362.698C276.462 317.834 250.158 278.86 214.637 251.187C212.817 252.019 210.99 252.831 209.147 253.562C199.386 257.436 189.506 261.343 179.101 262.775C168.697 264.207 157.549 262.94 148.801 257.13C138.706 250.424 133.058 238.482 131.246 226.5C130.505 221.596 130.429 216.807 130.629 212.074C116.979 209.198 102.846 207.662 88.3595 207.639C88.5341 209.303 88.6381 210.987 88.6381 212.696Z" fill="#533744"/>
<path d="M304.648 278.425C298.029 262.076 289.369 246.556 278.929 232.341C276.108 238.365 269.257 241.723 262.588 241.893C283.8 263.397 301.072 288.784 313.243 316.883C313.411 303.692 309.611 290.684 304.648 278.425Z" fill="#533744"/>
<path d="M88.0395 97.9523C71.0768 97.9523 54.4355 99.335 38.1902 101.919C33.2675 123.488 34.3448 146.363 43.8822 164.798C50.5982 165.256 56.9128 167.127 62.5902 170.058C70.9582 169.191 79.4462 168.738 88.0395 168.738C101.019 168.738 113.761 169.77 126.202 171.722C125.569 170.396 124.929 169.072 124.197 167.79C122.295 164.459 120.067 161.286 117.554 158.308C111.566 151.219 107.41 142.538 105.819 132.983C105.185 129.162 104.959 125.2 105.193 121.146C105.309 119.118 105.539 117.067 105.89 114.999C106.607 110.774 107.849 106.716 109.539 102.892C110.139 101.535 110.805 100.211 111.515 98.9163C103.754 98.343 95.9448 97.9523 88.0395 97.9523Z" fill="#533744"/>
<path d="M164.921 11.6997C155.647 17.3783 146.661 25.665 136.139 28.9623C127.56 31.6503 123.884 28.3997 115.737 27.6183C96.6894 25.7903 75.7707 38.8183 63.3894 52.2023C61.0067 54.777 58.7921 57.597 56.6641 60.525C67.0121 59.6143 77.4601 59.0597 88.0401 59.0597C144.051 59.0597 197.047 72.145 244.205 95.3477C256.993 85.4197 265.247 69.9317 265.247 52.4823C265.247 40.7917 262.893 31.485 258.923 24.113C238.003 14.9103 216.219 7.32099 193.709 1.55166C182.368 3.57166 172.039 7.341 164.921 11.6997Z" fill="#533744"/>
<path d="M287.991 362.698C288.221 362.07 288.501 361.465 288.861 360.892C290.334 358.542 292.863 357.116 295.129 355.514C306.561 347.432 312.535 333.184 313.223 319.2C313.261 318.426 313.233 317.656 313.242 316.884C301.071 288.784 283.799 263.398 262.587 241.894C262.382 241.9 262.177 241.93 261.971 241.93C256.37 241.908 252.401 239.141 247.251 237.918C240.518 236.32 240.478 237.67 233.977 241.202C227.687 244.62 221.229 248.174 214.637 251.186C250.157 278.861 276.462 317.834 287.991 362.698Z" fill="#7F5068"/>
<path d="M62.5898 170.059C76.6245 177.303 86.6378 191.212 88.3578 207.64C102.845 207.661 116.978 209.199 130.627 212.073C130.787 208.287 131.114 204.535 131.495 200.804C131.893 196.928 131.847 193.079 131.399 189.299C130.677 183.192 128.861 177.285 126.202 171.723C113.761 169.771 101.019 168.739 88.0392 168.739C79.4458 168.739 70.9578 169.192 62.5898 170.059Z" fill="#7F5068"/>
<path d="M56.6628 60.5244C48.0548 72.3631 41.6401 86.7964 38.1895 101.919C54.4348 99.3338 71.0761 97.9524 88.0388 97.9524C95.9441 97.9524 103.755 98.3431 111.515 98.9164C112.139 97.7778 112.796 96.6604 113.5 95.5738C115.008 93.2524 116.693 91.0538 118.537 88.9991C126.836 79.7538 138.329 73.4151 151.083 71.7951C152.705 71.5884 154.315 71.4564 155.909 71.3938C159.099 71.2711 162.228 71.4298 165.272 71.8498C175.931 73.3164 185.565 77.9658 193.204 84.8058C197.568 88.7151 201.281 93.3391 204.16 98.4924C205.6 101.07 206.831 103.779 207.831 106.598C210.349 106.639 212.908 106.636 215.496 106.58C226.272 105.679 236.135 101.611 244.204 95.3471C197.045 72.1458 144.049 59.0591 88.0388 59.0591C77.4588 59.0591 67.0108 59.6138 56.6628 60.5244Z" fill="#7F5068"/>
<path d="M193.709 1.55195C216.217 7.32128 238.002 14.9106 258.922 24.1133C246.46 0.967951 217.798 -2.73872 193.709 1.55195Z" fill="#7F5068"/>
<path d="M62.8395 227.737C89.7528 235.676 79.9795 191.286 68.9848 181.858C63.2808 176.966 53.9728 171.577 46.7915 176.773C42.3088 180.016 41.0915 186.181 41.2222 191.713C41.4315 200.492 44.1888 209.194 49.0728 216.49C52.4368 221.516 57.0395 226.026 62.8395 227.737Z" fill="#F3CFBB"/>
<path d="M82.627 325.25C82.627 374.295 122.386 414.054 171.431 414.054H176.083C172.586 365.104 132.211 326.26 82.627 325.25Z" fill="#E96534"/>
<path d="M104.823 286.063C97.2296 286.063 89.8136 286.816 82.627 288.208V315.527C137.586 316.543 182.396 359.727 185.906 414.054H220.383C220.778 410.163 220.982 406.216 220.982 402.222C220.982 338.068 168.976 286.063 104.823 286.063Z" fill="#F3CFBB"/>
<path d="M403.789 93.4379H379.941L380.921 88.9005H433.771L432.791 93.4379H408.761L396.185 153.437H391.121L403.789 93.4379Z" fill="#7F5068"/>
<path d="M448.268 85.1796L441.336 117.429C444.33 112.946 449.556 106.868 459.81 106.868C468.885 106.868 475.836 112.04 472.913 125.724L467.034 153.436H462.333L467.958 126.776C469.865 117.72 468.413 111.404 458.449 111.404C448.358 111.404 440.9 119.988 438.286 132.474L433.822 153.436H429.121L443.568 85.1796H448.268Z" fill="#7F5068"/>
<path d="M521.713 127.266C521.768 126.922 521.859 125.978 521.859 124.834C521.859 117.63 518.211 111.223 507.793 111.223C498.592 111.223 491.623 117.067 489.1 127.266H521.713ZM488.392 131.55C488.265 132.53 488.156 133.347 488.156 134.454C488.156 145.234 494 150.262 502.457 150.262C510.207 150.262 514.708 147.266 518.319 141.295H523.273C519.716 148.627 514.217 154.634 501.804 154.634C490.061 154.634 483.365 147.048 483.365 134.852C483.365 120.714 492.512 106.867 508.465 106.867C521.332 106.867 526.559 115.47 526.559 125.106C526.559 127.084 526.377 129.063 525.832 131.55H488.392Z" fill="#7F5068"/>
<path d="M393.46 239.815L374.289 175.683H384.585C389.288 192.53 397.996 221.679 399.338 230.311H399.429C401.21 221.023 410.646 191.305 415.458 175.683H425.082C429.433 189.998 439.214 222.534 440.654 230.025H440.774C442.806 219.843 452.113 190.203 456.553 175.683H466.36L445.809 239.815H435.186C430.8 225.262 421.414 194.343 419.746 186.51H419.656C417.936 195.297 408.894 223.878 403.912 239.815H393.46Z" fill="#7F5068"/>
<path d="M504.577 212.481C504.255 206.846 501.311 199.607 491.016 199.607C482.077 199.607 477.895 205.231 477.143 212.481H504.577ZM476.943 218.875C477.331 227.39 482.792 233.646 491.525 233.646C498.513 233.646 501.995 230.713 504.175 226.661H513.452C511.075 233.467 504.829 241.049 491.14 241.049C474.763 241.049 467.643 229.003 467.643 216.986C467.643 203.209 476.381 192.515 491.081 192.515C508.109 192.515 514.141 205.086 514.141 216.153C514.141 217.102 514.141 217.842 514.088 218.875H476.943Z" fill="#7F5068"/>
<path d="M562.369 216.251C562.369 208.171 558.046 200.2 548.228 200.2C538.177 200.2 533.637 207.122 533.637 216.756C533.637 226.667 538.814 233.312 548.141 233.312C558.026 233.312 562.369 225.516 562.369 216.251ZM524.744 171.992H534.01V200.486C536.268 196.954 540.97 192.515 550.389 192.515C562.969 192.515 571.914 202.45 571.914 215.944C571.914 231.115 562.749 241.05 549.668 241.05C540.417 241.05 536.132 237.22 533.794 233.134C533.75 235.264 533.689 238.334 533.54 239.815H524.654C524.744 234.028 524.744 229.318 524.744 224.11V171.992Z" fill="#7F5068"/>
<path d="M391.099 292.649H409.613C418.133 292.649 423.723 289.788 423.723 281.228C423.723 274.1 418.949 270.13 409.678 270.13H391.099V292.649ZM381.301 262.064H410.657C425.823 262.064 433.635 269.981 433.635 281.054C433.635 293.713 424.814 300.745 410.749 300.745H391.099V326.194H381.301V262.064Z" fill="#7F5068"/>
<path d="M485.461 312.765C485.461 317.247 485.443 322.039 485.523 326.194H476.547C476.365 324.934 476.26 321.893 476.224 318.881C473.919 323.89 469.799 327.429 460.356 327.429C450.977 327.429 443.471 322.326 443.471 308.995V280.127H452.727V307.277C452.727 313.947 455.236 319.662 463.093 319.662C472.357 319.662 476.195 314.318 476.195 301.654V280.127H485.461V312.765Z" fill="#7F5068"/>
<path d="M499.618 291.743C499.618 287.837 499.618 283.569 499.527 280.128H508.543C508.733 281.632 508.859 285.508 508.885 288.139C510.859 283.965 515.386 278.893 524.953 278.893C535.401 278.893 542.315 285.339 542.315 297.797V326.193H532.991V299.341C532.991 292.181 530.241 286.609 522.233 286.609C513.197 286.609 508.913 293.423 508.913 303.524V326.193H499.618V291.743Z" fill="#7F5068"/>
<path d="M562.783 303.351C562.783 312.193 567.82 319.758 577.009 319.758C587.516 319.758 591.496 312.773 591.496 302.922C591.496 293.067 588.268 286.537 577.348 286.537C567.668 286.537 562.783 294.402 562.783 303.351ZM600.436 258.371V312.938C600.436 317.33 600.436 321.781 600.527 326.194H591.515C591.283 324.451 591.177 321.614 591.141 319.495C588.8 323.53 584.813 327.429 574.905 327.429C561.939 327.429 553.223 317.599 553.223 303.561C553.223 288.558 564.025 278.894 576.105 278.894C586.151 278.894 589.853 283.245 591.141 285.453V258.371H600.436Z" fill="#7F5068"/>
<path d="M614.789 280.129H624.056V326.194H614.789V280.129ZM614.789 258.371H624.056V268.845H614.789V258.371Z" fill="#7F5068"/>
<path d="M633.418 280.128H642.215V265.708H651.51V280.128H662.981V287.366H651.51V312.204C651.51 317.152 652.746 319.411 657.525 319.411C658.798 319.411 660.559 319.356 661.866 319.034V325.788C659.753 326.518 657.163 326.656 654.513 326.656C645.213 326.656 642.215 322.411 642.215 313.628V287.366H633.418V280.128Z" fill="#7F5068"/>
</svg>
